<?xml version="1.0" ?><svg xmlns="http://www.w3.org/2000/svg" xmlns:xlink="http://www.w3.org/1999/xlink" version="1.1" viewBox="0 0 512 512" style="enable-background:new 0 0 512 512;" xml:space="preserve"><style type="text/css">
	.st0{fill:#231A15;}
	.st1{fill:#FFE000;}
	.st2{fill:#BCA100;}
	.st3{fill:#FC0000;}
	.st4{fill:#AA0000;}
	.st5{fill:#F94343;}
	.st6{fill:#FFFFFF;}
	.st7{fill:#A58E07;}
	.st8{opacity:0.44;}
	.st9{fill:#756204;}
	.st10{opacity:0.64;}
	.st11{opacity:0.38;}
	.st12{fill:#5D5004;}
	.st13{fill:#B7A100;}
	.st14{fill:#1D4DFC;}
	.st15{fill:#143CAF;}
	.st16{opacity:0.59;}
	.st17{opacity:0.52;}
	.st18{fill:#FF7F1F;}
	.st19{fill:#C4570C;}
	.st20{fill:#B29904;}
	.st21{fill:#87720A;}
	.st22{fill:#DDDDDD;}
	.st23{opacity:0.51;}
	.st24{fill:#878787;}
	.st25{fill:#727272;}
	.st26{opacity:0.33;}
	.st27{opacity:0.46;}
	.st28{fill:#25CBF2;}
	.st29{fill:#0A8FA5;}
	.st30{opacity:0.58;}
	.st31{fill:#04889E;}
	.st32{fill:#035A63;}
	.st33{opacity:0.65;}
	.st34{opacity:0.39;}
	.st35{fill:#AB0000;}
	.st36{fill:#1987A1;}
	.st37{fill:#3F1F0A;}
	.st38{fill:#4DEEFF;}
	.st39{fill:#21B9C1;}
	.st40{fill:#BBF9FF;}
	.st41{fill:#64ACAF;}
	.st42{fill:#089FB7;}
	.st43{opacity:0.47;}
	.st44{opacity:0.42;}
	.st45{fill:#DBF7FC;}
	.st46{fill:#B2E7ED;}
	.st47{fill:#0FA2BA;}
	.st48{opacity:0.54;}
	.st49{fill:#8E7716;}
	.st50{fill:#191401;}
	.st51{fill:#382E02;}
	.st52{fill:#605106;}
	.st53{fill:#AFACA0;}
	.st54{fill:#BC0404;}
	.st55{fill:#750000;}
	.st56{fill:#A08B0D;}
	.st57{fill:#5B4C05;}
	.st58{opacity:0.4;}
	.st59{opacity:0.5;}
	.st60{fill:#FF8383;}
	.st61{fill:#FFF0A6;}
	.st62{fill:#E2C227;}
	.st63{fill:#AA9205;}
	.st64{fill:#FFEA71;}
	.st65{opacity:0.22;}
	.st66{fill:#B19B00;}
	.st67{fill:#1989A4;}
	.st68{fill:#13A0B7;}
	.st69{fill:#C4A805;}
	.st70{fill:#FFF3A9;}
	.st71{fill:#846E03;}
	.st72{fill:#2D2502;}
	.st73{opacity:0.36;}
	.st74{fill:#4DD307;}
	.st75{fill:#328402;}
	.st76{fill:#97FF5A;}
	.st77{fill:#7A6500;}
	.st78{fill:#246001;}
	.st79{fill:#359100;}
	.st80{fill:#968022;}
	.st81{fill:#4F420B;}
	.st82{fill:#FFED83;}
	.st83{fill:#BAA335;}
	.st84{fill:#8D0991;}
	.st85{fill:#4B044F;}
	.st86{fill:#CE15CE;}
	.st87{fill:#897502;}
	.st88{fill:#493D01;}
	.st89{fill:#C9C9C9;}
	.st90{fill:#2D280E;}
	.st91{fill:#378C06;}
	.st92{fill:#183A03;}
	.st93{fill:#94FF55;}
	.st94{fill:#2E7F04;}
	.st95{fill:#63AB39;}
	.st96{fill:#AA5F04;}
	.st97{fill:#633502;}
	.st98{fill:#EF9014;}
	.st99{fill:#A05A07;}
	.st100{fill:#05616B;}
	.st101{fill:#033335;}
	.st102{fill:#0E94AA;}
	.st103{fill:#035D66;}
	.st104{opacity:0.27;}
	.st105{opacity:0.43;}
	.st106{fill:#FFF203;}
	.st107{fill:#FFA300;}
	.st108{fill:#2B3030;}
	.st109{opacity:0.28;}
	.st110{fill:#FCD17A;}
	.st111{fill:#AF853A;}
	.st112{opacity:0.31;}
	.st113{fill:#B641FF;}
	.st114{fill:#700FBC;}
	.st115{fill:#F2D0B1;}
	.st116{fill:#AF835F;}
	.st117{fill:#C17540;}
	.st118{fill:#F2BA94;}
	.st119{fill:#592909;}
	.st120{fill:#2B1204;}
	.st121{fill:#894818;}
	.st122{fill:#512609;}
	.st123{fill:#FF7F15;}
	.st124{fill:#A04A0A;}
	.st125{fill:#B7865E;}
	.st126{fill:#70350E;}
	.st127{fill:#3A1805;}
	.st128{fill:#C1521B;}
	.st129{fill:#FFC7AE;}
	.st130{fill:#FF717F;}
	.st131{fill:#6E2F0F;}
	.st132{fill:#AC8675;}
	.st133{opacity:0.25;}
	.st134{opacity:0.32;}
	.st135{fill:#FFFCC5;}
	.st136{fill:#D1CA78;}
	.st137{fill:#D37733;}
	.st138{fill:#A04F18;}
	.st139{fill:#0ABFBA;}
	.st140{fill:#057F79;}
	.st141{fill:#15F9F9;}
	.st142{fill:#09B2AD;}
	.st143{fill:#B2B2B2;}
	.st144{fill:#FFF755;}
	.st145{fill:#BCB121;}
	.st146{fill:#F90368;}
	.st147{opacity:0.49;}
	.st148{fill:#B50857;}
	.st149{fill:#FF76B4;}
	.st150{fill:#F23091;}
	.st151{fill:#FFF800;}
	.st152{fill:#C9BF05;}
	.st153{fill:#FF8500;}
	.st154{fill:#A35507;}
	.st155{fill:#AA6E50;}
	.st156{fill:#723C25;}
	.st157{fill:#EAD4B9;}
	.st158{fill:#AA8D6F;}
	.st159{fill:#B7A8A5;}
	.st160{fill:#84726F;}
	.st161{fill:#77645F;}
	.st162{fill:#51403C;}
	.st163{fill:#EABBA7;}
	.st164{fill:#BC7F69;}
	.st165{fill:#7C5039;}
	.st166{fill:#442619;}
	.st167{fill:#B7AE04;}
	.st168{fill:#BAB108;}
	.st169{fill:#7A7105;}
	.st170{fill:#352B23;}
	.st171{fill:#050403;}
	.st172{fill:#706255;}
	.st173{fill:#44382E;}
	.st174{fill:#634319;}
	.st175{fill:#35210A;}
	.st176{fill:#2D1C08;}
	.st177{fill:#0A0601;}
	.st178{fill:#9E7443;}
	.st179{fill:#704D2A;}
	.st180{fill:#D8A73A;}
	.st181{fill:#A0741C;}
	.st182{fill:#3F2F28;}
	.st183{fill:#211410;}
	.st184{fill:#FF326C;}
	.st185{fill:#BC0749;}
	.st186{fill:#68390E;}
	.st187{fill:#A5632D;}
	.st188{fill:#3D1E05;}
	.st189{fill:#331A06;}
	.st190{fill:#110801;}
	.st191{fill:#160A02;}
	.st192{fill:#663514;}
	.st193{opacity:0.29;}
	.st194{fill:#FC001F;}
	.st195{fill:#AF021F;}
	.st196{fill:#C48622;}
	.st197{fill:#8C5910;}
	.st198{fill:#846D64;}
	.st199{fill:#513B35;}
	.st200{fill:#5B4842;}
	.st201{fill:#332522;}
	.st202{fill:#47332C;}
	.st203{fill:#543E38;}
	.st204{fill:#1E1412;}
	.st205{fill:#604C43;}
	.st206{fill:#D3896C;}
	.st207{fill:#FF001F;}
	.st208{fill:#AF0824;}
	.st209{fill:#A37462;}
	.st210{fill:#5E3E34;}
	.st211{fill:#874A38;}
	.st212{fill:#4C2218;}
	.st213{fill:#5B2B20;}
	.st214{fill:#210C09;}
	.st215{fill:#99001A;}
	.st216{fill:#A08A07;}
	.st217{fill:#A08904;}
	.st218{fill:#5B4C02;}
	.st219{fill:#CECAB7;}
	.st220{fill:#727068;}
	.st221{fill:#42403A;}
	.st222{fill:#B2B0A6;}
	.st223{fill:#726F62;}
	.st224{fill:#6B4F45;}
	.st225{fill:#3A261F;}
	.st226{fill:#777468;}
	.st227{fill:#474436;}
	.st228{fill:#B78B7D;}
	.st229{fill:#845A4E;}
	.st230{fill:#3A372D;}
	.st231{fill:#43CFFF;}
	.st232{fill:#13A0BC;}
</style><g id="_x35_8"><g><path class="st0" d="M277.24,493.16h-42.47c-0.05,0-0.1,0-0.15,0l-26.27-0.24c-0.03,0-0.09,0-0.14,0l-24.96-0.06    c-29.57,0.01-52.48,0.3-52.71,0.3c-3.17,0.06-6.18-1.24-8.35-3.54c-2.16-2.3-3.27-5.39-3.04-8.54l0.02-0.29    c0-0.01,0.01-0.12,0.01-0.13l0.26-3.6c-17.81,2.53-44.52,2.85-70.8-9.93c-3.98-1.93-6.46-6.02-6.34-10.44l6.91-257.6    c-4.22-0.64-6.76-1.14-6.94-1.18c-3.48-0.7-6.42-2.99-7.95-6.19c-1.53-3.2-1.46-6.93,0.18-10.07l42.41-81.24    c1.81-3.47,5.3-5.76,9.21-6.03c3.9-0.28,7.68,1.51,9.96,4.69l50.73,71.04c3.48,4.88,2.54,11.63-2.14,15.36    c-4.46,3.56-9.74,6.56-15.77,8.97l7.83,89.07c1.19-0.43,2.47-0.66,3.8-0.66h17.25c0.08-1.45,0.15-2.97,0.24-4.55    c1.19-23.2,2.7-55.39,3.14-77.04c0.1-4.99,3.43-9.16,7.97-10.55v-18.33c-5.57-2.02-8.71-3.46-8.89-3.54    c-3.08-1.42-5.37-4.15-6.21-7.44c-0.84-3.29-0.16-6.78,1.86-9.51L251.07,23.4c2.18-2.94,5.62-4.61,9.3-4.56    c3.66,0.08,7.05,1.93,9.1,4.95l86.92,128.48c1.91,2.82,2.44,6.36,1.44,9.61c-1,3.26-3.41,5.89-6.57,7.16    c-2.74,1.1-5.54,2.17-8.39,3.2v18.46c4.54,1.39,7.87,5.57,7.97,10.55c0.48,23.58,2.23,59.74,3.37,81.59h17.25    c1.33,0,2.61,0.23,3.8,0.66l7.83-89.07c-6.03-2.41-11.31-5.41-15.77-8.97c-4.68-3.74-5.63-10.49-2.14-15.36l50.73-71.04    c2.28-3.19,6.04-4.97,9.96-4.69c3.91,0.27,7.4,2.56,9.21,6.03l42.41,81.24c1.64,3.14,1.71,6.87,0.18,10.07    c-1.53,3.2-4.47,5.5-7.95,6.19c-0.17,0.04-2.72,0.54-6.94,1.18l6.91,257.6c0.12,4.42-2.36,8.51-6.34,10.44    c-26.27,12.78-52.99,12.45-70.8,9.93c0.18,2.59,0.29,4,0.29,4.01c0.23,3.15-0.88,6.25-3.04,8.54c-2.16,2.3-5.18,3.62-8.35,3.54    c-0.23,0-23.14-0.29-52.7-0.3l-18.52,0.03c-0.05,0-0.09,0-0.14,0l-12.94,0.07c-0.02,0-0.1,0-0.12,0l-13.24,0.12    c-2.14,0.02-4.28,0.05-6.41,0.08C277.34,493.16,277.29,493.16,277.24,493.16z M234.83,470.61h42.32c2.13-0.03,4.26-0.06,6.39-0.08    l13.48-0.12c0.02,0,0.1,0,0.12,0l12.79-0.07c0.06,0,0.12,0,0.18,0l7.91-0.02c0,0,0.11,0,0.11,0l10.63-0.01    c16.6,0.01,31.11,0.1,40.73,0.18c-0.14-1.99-0.29-4.19-0.45-6.58c-0.25-3.62,1.27-7.15,4.06-9.46c2.8-2.31,6.54-3.14,10.06-2.21    c10.68,2.82,37.12,7.79,63.79-2.53l-6.98-260.2c-0.16-5.88,4.23-10.89,10.08-11.51c0.03,0,0.06-0.01,0.09-0.01l-26.55-50.87    l-32.91,46.08c2.27,0.95,4.73,1.79,7.39,2.51c5.26,1.44,8.73,6.43,8.25,11.86L387.5,401.69c-0.51,5.83-5.39,10.29-11.23,10.29    c-0.05,0-0.11,0-0.16,0c-5.9-0.08-10.74-4.7-11.1-10.6c-2.48-41.22-4.03-73.41-4.61-95.98h-16.89c-5.99,0-10.93-4.68-11.26-10.67    c-0.88-16.34-2.85-54.21-3.69-82.38c-4.76-1.32-8.25-5.69-8.25-10.86V164.2c0-4.88,3.14-9.21,7.79-10.72    c0.51-0.17,1.02-0.33,1.53-0.5L259.71,49.62l-76.79,103.66c0.3,0.1,0.6,0.19,0.91,0.29c4.67,1.49,7.85,5.83,7.85,10.74v37.19    c0,5.18-3.49,9.54-8.25,10.86c-0.63,20.93-1.87,47.28-2.89,67.1c-0.3,5.84-0.57,10.88-0.77,14.7c0,0.04,0,0.07-0.01,0.11    l-0.03,0.47c-0.32,5.98-5.27,10.67-11.26,10.67h-16.89c-0.59,22.57-2.13,54.77-4.61,95.98c-0.35,5.89-5.2,10.51-11.1,10.6    c-0.05,0-0.11,0-0.16,0c-5.83,0-10.72-4.46-11.23-10.29l-18.83-214.13c-0.48-5.43,3-10.42,8.25-11.86    c2.66-0.73,5.13-1.57,7.39-2.51l-32.91-46.08l-26.55,50.87c0.03,0,0.06,0.01,0.1,0.01c5.85,0.62,10.24,5.63,10.08,11.51    l-6.98,260.2c26.67,10.32,53.11,5.34,63.79,2.53c3.51-0.93,7.26-0.1,10.06,2.21c2.8,2.31,4.31,5.84,4.06,9.46l-0.35,5.07    l-9.5-0.53l0.01,0.03l9.48,0.66l-0.09,1.35c9.62-0.08,24.14-0.18,40.73-0.18l25.14,0.06c0.04,0,0.11,0,0.16,0L234.83,470.61z"/></g><g><g><g><path class="st129" d="M180.41,207.51v-43.5l44.94-14.12c0,0,32.76-3.63,61.32,0l44.94,14.12v43.5L322.67,226H180.41"/></g><g><path class="st206" d="M219.06,151.86l6.28-1.97c0,0,22.56-2.5,46.55-1.27c-1.64,0.47-3.28,0.92-4.93,1.32      c-1.8,0.43-3.6,0.83-5.42,1.18c-0.63,0.12-4.88,0.75-5.25,0.86C243.87,153.29,231.5,152.6,219.06,151.86z M322.14,170.13      c-16.72,12.03-36.47,19.58-56.81,22.52c-16.52,2.38-32.44,1.87-49.01,0.88c-11.99-0.71-23.99-1.7-35.91-3.23V226h142.26      l8.93-18.49v-43.5l-2.76-0.87C327.07,165.84,324.77,168.24,322.14,170.13z"/></g></g><g><g><path class="st129" d="M137.64,461.35c0,0-42.76,15.73-84.07-4.35l7.25-270.14l55.81-3.38l21.02,238.98"/></g><g><path class="st206" d="M116.62,183.48l-17.62,1.07c4.86,26.6,6.59,53.77,6.68,80.78c0.09,27.14-1.43,54.26-3.29,81.32      c-0.46,6.71-0.94,13.42-1.42,20.13c-0.21,2.9-1.52,18.14-0.58,6.91c-0.09,1.08-0.27,2.16-0.39,3.24      c-0.88,7.7-1.7,15.39-2.78,23.07c-2.22,15.76-5.94,32.39-16.77,44.65c-7.4,8.38-17.03,11.83-26.87,11.61l-0.02,0.73      c41.31,20.09,84.07,4.35,84.07,4.35v-38.89L116.62,183.48z"/></g></g><g><g><path class="st207" d="M44.5,186.86c0,0,64.15,12.93,93.14-10.2l-50.73-71.04L44.5,186.86z"/></g><g><path class="st208" d="M111.75,140.4c-1.45,13.51-6.04,25.95-19.55,33.77c-12.42,7.19-28.29,5.98-40.69-0.75l-7.01,13.43      c0,0,64.15,12.93,93.14-10.2L111.75,140.4z"/></g></g><g><g><path class="st129" d="M168.08,301.37c0,0,3.62-64.23,4.35-99.88h27.54v15.26h21.02v-12.98h21.02v13.67l27.98-2.25v-11.42h21.02      v12.98h21.02v-15.26h27.54c0.72,35.65,4.35,99.88,4.35,99.88v23.97l-175.83-5.43V301.37z"/></g><g><path class="st206" d="M339.57,201.49h-9.98c-2.93,25.46-11.84,49.9-35.26,63.29c-8.22,4.7-17.51,7.85-26.79,9.64      c-6.47,1.25-13.05,2.07-19.61,2.68c-0.96,0.09-5.85,0.72-1.04-0.01c-0.67,0.09-1.34,0.18-2.01,0.27      c-14.78,2-29.59,3.87-44.53,4.06c-10.26,0.13-20.88-0.38-31.07-2.54c-0.68,13.33-1.2,22.5-1.2,22.5v18.53l175.83,5.43v-23.97      C343.92,301.37,340.29,237.15,339.57,201.49z"/></g></g><g><g><path class="st129" d="M274.34,310.76h15.22v-16.63h26.09v16.63h25.37v-16.63h30.44c0.72,57.26,10.15,187.76,10.15,187.76      s-53.63-0.69-104.37,0h-42.47c-50.73-0.69-104.37,0-104.37,0s9.42-130.5,10.15-187.76h30.44v16.63h25.37v-16.63h26.09v16.63      h15.22h4.35v-16.63h23.92v16.63H274.34z"/></g><g><path class="st206" d="M371.46,294.13h-10.93c-2.41,22.5-6.76,44.92-15.35,65.91c-9.11,22.26-21.9,43.38-40.64,58.89      c-20.25,16.76-44.74,27.93-70.79,31.79c-34.05,5.05-67.7,0.27-100.66-8.08c-1.53,23.25-2.69,39.25-2.69,39.25      s53.63-0.69,104.37,0h42.47c50.73-0.69,104.37,0,104.37,0S372.18,351.38,371.46,294.13z"/></g></g><g><g><path class="st129" d="M374.36,461.35c0,0,42.76,15.73,84.07-4.35l-7.25-270.14l-55.81-3.38l-21.02,238.98"/></g><g><path class="st206" d="M451.18,186.86l-11.5-0.7c-0.57,14.56-0.28,29.19-0.56,43.76c-0.89,45.12-2.48,91.78-13.55,135.73      c-4.47,17.72-11.17,37.8-25.22,50.36c-3.23,2.88-6.67,5.18-10.26,6.93c0.09,1.52,0.21,3.03,0.39,4.55      c1.15,9.85-7.3,17.68-16.13,20.13v13.73c0,0,42.76,15.73,84.07-4.35L451.18,186.86z"/></g></g><g><g><path class="st207" d="M467.5,186.86c0,0-64.15,12.93-93.14-10.2l50.73-71.04L467.5,186.86z"/></g><g><path class="st208" d="M443.98,141.79c-1.77,4.71-4.34,9.2-7.81,13.33c-8.54,10.18-21.42,15.06-34.34,16.22      c-7.38,0.66-14.78-0.49-21.46-3.1l-6,8.41c28.99,23.14,93.14,10.2,93.14,10.2L443.98,141.79z"/></g></g><g><g><path class="st207" d="M164.95,158.59c0,0,84.91,39.14,182.09,0L260.13,30.11L164.95,158.59z"/></g><g><path class="st208" d="M308.47,101.56c-15.52,29.3-47.28,47.78-79.81,51.93c-16.19,2.06-34.44-0.76-48.05-10.24      c-0.95-0.66-1.87-1.35-2.76-2.05l-12.88,17.39c0,0,84.91,39.14,182.09,0L308.47,101.56z"/></g></g><g><g><path class="st209" d="M83.66,244.76c-0.33-1.32-0.51-2.72-0.51-4.16v-10.99c0-8.09,5.46-14.65,12.19-14.65      c6.73,0,12.19,6.56,12.19,14.65v10.99c0,1.45-0.18,2.84-0.51,4.16H83.66z M106.93,315.19c0.33-1.32,0.51-2.72,0.51-4.16v-10.99      c0-8.09-5.46-14.65-12.19-14.65c-6.73,0-12.19,6.56-12.19,14.65v10.99c0,1.45,0.18,2.84,0.51,4.16H106.93z M114.95,391.65      c0.33-1.32,0.51-2.72,0.51-4.16V376.5c0-8.09-5.46-14.65-12.19-14.65s-12.19,6.56-12.19,14.65v10.99c0,1.45,0.18,2.84,0.51,4.16      H114.95z M188.83,365.92c0.33-1.32,0.51-2.72,0.51-4.16v-10.99c0-8.09-5.46-14.65-12.19-14.65c-6.73,0-12.19,6.56-12.19,14.65      v10.99c0,1.45,0.18,2.84,0.51,4.16H188.83z M222.32,263.57c0.26-1.08,0.41-2.21,0.41-3.39v-8.95c0-6.59-4.45-11.93-9.93-11.93      c-5.48,0-9.93,5.34-9.93,11.93v8.95c0,1.18,0.15,2.31,0.41,3.39H222.32z M265.52,263.57c0.27-1.08,0.41-2.21,0.41-3.39v-8.95      c0-6.59-4.45-11.93-9.93-11.93s-9.93,5.34-9.93,11.93v8.95c0,1.18,0.15,2.31,0.41,3.39H265.52z M404.97,244.76      c-0.33-1.32-0.51-2.72-0.51-4.16v-10.99c0-8.09,5.46-14.65,12.19-14.65s12.19,6.56,12.19,14.65v10.99      c0,1.45-0.18,2.84-0.51,4.16H404.97z M428.44,315.19c0.33-1.32,0.51-2.72,0.51-4.16v-10.99c0-8.09-5.46-14.65-12.19-14.65      s-12.19,6.56-12.19,14.65v10.99c0,1.45,0.18,2.84,0.51,4.16H428.44z M420.42,391.65c0.33-1.32,0.51-2.72,0.51-4.16V376.5      c0-8.09-5.46-14.65-12.19-14.65c-6.73,0-12.19,6.56-12.19,14.65v10.99c0,1.45,0.18,2.84,0.51,4.16H420.42z M346.54,365.92      c0.33-1.32,0.51-2.72,0.51-4.16v-10.99c0-8.09-5.46-14.65-12.19-14.65c-6.73,0-12.19,6.56-12.19,14.65v10.99      c0,1.45,0.18,2.84,0.51,4.16H346.54z M308.71,263.57c0.27-1.08,0.41-2.21,0.41-3.39v-8.95c0-6.59-4.45-11.93-9.93-11.93      c-5.48,0-9.93,5.34-9.93,11.93v8.95c0,1.18,0.15,2.31,0.41,3.39H308.71z"/></g><g><path class="st210" d="M213.37,263.57h-10.08c-0.26-1.08-0.41-2.21-0.41-3.39v-8.95c0-6.59,4.45-11.93,9.93-11.93      c3.13,0,5.92,1.75,7.74,4.47c-0.13,0.02-0.27,0.05-0.4,0.07c-0.06,0.01-0.11,0.03-0.17,0.04c-1.05,0.34-2.08,0.76-3.05,1.29      c-0.94,0.52-1.84,1.19-2.56,1.98c-0.06,0.07-1.9,2.44-1.95,2.52c0,0.01-0.01,0.01-0.01,0.02c-0.45,0.97-0.87,1.95-1.25,2.96      c-0.3,1.08-0.5,2.22-0.45,3.34c0,0.05,0.43,3.26,0.44,3.31c0,0.01,0.01,0.03,0.01,0.04c0.03,0.11,1.21,2.89,1.26,2.98      c0.01,0.01,0.02,0.03,0.03,0.04C212.49,262.43,212.92,262.99,213.37,263.57z M176.02,363.74c-1.2-1.12-2.06-2.44-2.55-3.97      c-0.47-0.9-0.77-1.84-0.93-2.82c-0.12-0.4-0.25-0.8-0.32-1.22c-0.09-0.47-0.43-2.87-0.45-3.35c0-0.03-0.01-0.06-0.01-0.09      c-0.04-1.13,0.15-2.29,0.45-3.37c0.29-1.04,0.67-2.07,1.26-2.97c0.64-0.83,1.29-1.67,1.93-2.5c0.38-0.37,0.8-0.69,1.26-0.98      c1.67-1.29,0.78-0.77,2.74-1.59c1.79-0.75,2.42-1.17,4.77-1.06c0.39,0.05,0.78,0.11,1.18,0.16c-2.17-2.37-5.04-3.83-8.2-3.83      c-6.73,0-12.19,6.56-12.19,14.65v10.99c0,1.45,0.18,2.84,0.51,4.16h13.6C177.92,365.41,176.9,364.69,176.02,363.74z       M101.37,389.83c-0.24-0.24-0.48-0.48-0.72-0.72c-1.53-1.54-2.59-3.36-3.18-5.45c-0.15-1.09-0.29-2.19-0.44-3.28      c0.01-2.23,0.57-4.31,1.69-6.23c0.64-0.83,1.29-1.67,1.93-2.5c1.12-1.2,2.44-2.06,3.97-2.55c1.47-0.77,3.06-1.13,4.76-1.06      c1.52-0.06,2.94,0.24,4.28,0.85c-2.14-4.21-5.99-7.03-10.4-7.03c-6.73,0-12.19,6.56-12.19,14.65v10.99      c0,1.45,0.18,2.84,0.51,4.16h12.12C102.85,391.17,102.06,390.58,101.37,389.83z M92.67,243.43c-1.53-1.54-2.59-3.36-3.18-5.45      c-0.15-1.09-0.29-2.19-0.44-3.28c-0.01-0.21,0.01-0.41,0.01-0.61l-0.01-0.11c-0.06-1.7,0.29-3.29,1.06-4.76      c0.5-1.53,1.35-2.86,2.55-3.97c1.12-1.2,2.44-2.06,3.97-2.55c1.47-0.77,3.06-1.13,4.76-1.06h2.17c0.71,0,1.4,0.08,2.07,0.2      c-2.16-4.11-5.96-6.85-10.31-6.85c-6.73,0-12.19,6.56-12.19,14.65v10.99c0,1.45,0.18,2.84,0.51,4.16H94.4      C93.83,244.32,93.25,243.87,92.67,243.43z M413.75,244.76c-0.14-0.31-0.27-0.63-0.38-0.96c-0.59-1.13-0.94-2.33-1.04-3.6      c-0.54-1.27-0.81-2.62-0.75-4.06c-0.06-1.7,0.29-3.29,1.06-4.76c0.01-0.02,0.02-0.04,0.02-0.06c0.23-0.72,0.46-1.4,1.07-2.46      c0.56-0.97,1.25-1.89,2.04-2.68c1.73-1.73,2.23-1.85,4.08-2.63c1.93-0.81,2.33-1.09,4.9-1.1c0.88,0,1.78,0.09,2.65,0.27      c-2.05-4.61-6.1-7.76-10.76-7.76c-6.73,0-12.19,6.56-12.19,14.65v10.99c0,1.45,0.18,2.84,0.51,4.16H413.75z M93.11,314.77      c-0.66-0.55-1.28-1.15-1.89-1.76c-1.53-1.54-2.59-3.36-3.18-5.45c-0.15-1.09-0.29-2.19-0.44-3.28c0.01-2.23,0.57-4.31,1.69-6.23      c0.64-0.83,1.29-1.67,1.93-2.5c1.12-1.2,2.44-2.06,3.97-2.55c1.47-0.77,3.06-1.13,4.76-1.06c1.7-0.06,3.29,0.29,4.76,1.06      c0.52,0.17,1.01,0.39,1.48,0.64c-1.98-4.87-6.13-8.24-10.95-8.24c-6.73,0-12.19,6.56-12.19,14.65v10.99      c0,1.45,0.18,2.84,0.51,4.16h10.08C93.46,315.04,93.28,314.91,93.11,314.77z M413.99,314.13c-0.9-1.42-1.39-2.95-1.47-4.59      c-0.37-1.64-0.29-3.28,0.22-4.92c0.5-1.49,1.06-3,1.83-4.37c1.65-2.97,4.54-5.27,7.82-6.16c1.59-0.44,3.61-0.57,5.37-0.29      c-1.95-4.96-6.14-8.41-11.02-8.41c-6.73,0-12.19,6.56-12.19,14.65v10.99c0,1.45,0.18,2.84,0.51,4.16h9.58      C414.42,314.85,414.2,314.5,413.99,314.13z M420.06,371.09c-1.79-5.41-6.18-9.24-11.32-9.24c-6.73,0-12.19,6.56-12.19,14.65      v10.99c0,1.45,0.18,2.84,0.51,4.16h10.55C397.99,381.98,409.5,367.79,420.06,371.09z M297.41,261.92      c-0.77-1.47-1.13-3.06-1.06-4.76c0-0.22,0-0.44,0.02-0.66c0.06-0.73,0.32-2.64,0.45-3.35c0.01-0.05,0.01-0.09,0.02-0.14      c0.13-0.55,0.6-1.48,0.69-1.69c0.19-0.44,0.39-1.09,0.68-1.58c0.01-0.02,0.02-0.03,0.03-0.05c0.64-0.83,1.29-1.67,1.93-2.5      c0.03-0.03,0.05-0.05,0.08-0.08c0.19-0.19,2.32-1.84,2.55-1.96c0.04-0.02,0.07-0.04,0.11-0.05c0.98-0.41,1.97-0.83,2.95-1.24      c0.02-0.01,0.04-0.01,0.06-0.02c0.02,0,0.04-0.01,0.07-0.01c0.3-0.04,0.61-0.08,0.91-0.12c-1.82-2.68-4.59-4.4-7.7-4.4      c-5.48,0-9.93,5.34-9.93,11.93v8.95c0,1.18,0.15,2.31,0.41,3.39h8.46C297.85,263.05,297.6,262.5,297.41,261.92z M336.2,365.91      c-1.2-1.12-2.06-2.44-2.55-3.97c-0.77-1.47-1.13-3.06-1.06-4.76v-0.72c0.01-2.23,0.57-4.31,1.69-6.23      c0.64-0.83,1.29-1.67,1.93-2.5c1.54-1.53,3.36-2.59,5.45-3.18c1.09-0.15,2.19-0.29,3.28-0.44c0.26-0.01,0.52,0.01,0.78,0.02      c-2.02-4.75-6.11-8.01-10.86-8.01c-6.73,0-12.19,6.56-12.19,14.65v10.99c0,1.45,0.18,2.84,0.51,4.16L336.2,365.91      C336.2,365.92,336.2,365.92,336.2,365.91z M263.1,242.93c-1.8-2.23-4.31-3.63-7.1-3.63c-5.48,0-9.93,5.34-9.93,11.93v8.95      c0,1.18,0.15,2.31,0.41,3.39h10.58C251.51,257.24,253.52,244.95,263.1,242.93z"/></g></g><g><g><path class="st211" d="M234.76,481.88h42.47c17.61-0.24,35.58-0.31,51.53-0.3v-52.29c0-39.08-31.68-70.77-70.77-70.77h-3.99      c-39.08,0-70.77,31.68-70.77,70.77v52.29C199.19,481.57,217.15,481.65,234.76,481.88z"/></g><g><path class="st212" d="M319.84,394.89c-0.31,4.1-0.87,8.19-1.59,12.3c-6.04,34.42-37,58.38-71.28,58.83      c-15.99,0.21-33.1-4.46-47.6-13.04c-5.52-1.33-10.93-3.2-16.12-5.62v34.22c15.95-0.01,33.91,0.07,51.53,0.3h42.47      c17.61-0.24,35.58-0.31,51.53-0.3v-52.29C328.76,416.8,325.51,405.07,319.84,394.89z"/></g></g><g><g><path class="st213" d="M257.99,358.52c0.8,0,1.58,0.03,2.37,0.06v123.31H256V358.52H257.99z M274.81,360.55      c-1.44-0.35-2.89-0.65-4.36-0.91v122.25h4.36V360.55z M212.74,481.67c1.45,0.01,2.91,0.02,4.36,0.03V368.9      c-1.5,0.92-2.95,1.9-4.36,2.92V481.67z M231.55,362.18c-1.48,0.49-2.93,1.03-4.36,1.62v118c1.46,0.02,2.91,0.03,4.36,0.05      V362.18z M284.89,481.79c1.46-0.02,2.91-0.03,4.36-0.04V365.8c-1.43-0.7-2.88-1.36-4.36-1.97V481.79z M313.79,481.6      c1.47,0,2.92-0.01,4.36-0.01v-89.56c-1.34-2.16-2.8-4.24-4.36-6.24V481.6z M241.63,481.88H246v-122.9      c-1.47,0.17-2.92,0.38-4.36,0.64V481.88z M303.71,375.28c-1.41-1.19-2.87-2.33-4.36-3.41v109.8c1.46-0.01,2.92-0.02,4.36-0.03      V375.28z M198.29,481.6c1.45,0,2.9,0.01,4.36,0.01V380.62c-1.53,1.62-2.99,3.31-4.36,5.06V481.6z"/></g><g><path class="st214" d="M246,469.89v12h-4.36v-11.7C243.09,470.14,244.55,470.04,246,469.89z M198.29,456.14v25.46      c1.45,0,2.9,0.01,4.36,0.01v-22.29C201.15,458.33,199.69,457.26,198.29,456.14z M258.12,467.25c-0.7,0.24-1.41,0.45-2.12,0.66      v13.98h4.36V466.4C259.62,466.69,258.88,466.99,258.12,467.25z M212.74,464.75v16.92c1.45,0.01,2.91,0.02,4.36,0.03v-15.27      C215.63,465.92,214.17,465.36,212.74,464.75z M227.18,469.11v12.68c1.46,0.02,2.91,0.03,4.36,0.05v-12.07      C230.09,469.6,228.63,469.38,227.18,469.11z M313.79,422.17v59.43c1.47,0,2.92-0.01,4.36-0.01V414      C316.86,416.8,315.4,419.54,313.79,422.17z M303.55,435.36c-1.32,1.55-2.73,3.03-4.21,4.44v41.87c1.46-0.01,2.92-0.02,4.36-0.03      V435.2C303.65,435.25,303.6,435.31,303.55,435.36z M270.45,461.52v20.36h4.36v-23.21C273.4,459.68,271.94,460.63,270.45,461.52z       M284.89,450.16v31.63c1.46-0.02,2.91-0.03,4.36-0.04v-34.12C287.84,448.53,286.38,449.36,284.89,450.16z"/></g></g><g><g><path class="st213" d="M256,427.77c0,2.74-2.22,4.96-4.96,4.96s-4.96-2.22-4.96-4.96s2.22-4.96,4.96-4.96S256,425.03,256,427.77      z M265.69,422.81c-2.74,0-4.96,2.22-4.96,4.96s2.22,4.96,4.96,4.96c2.74,0,4.96-2.22,4.96-4.96S268.43,422.81,265.69,422.81z"/></g><g><path class="st214" d="M256,427.77c0,2.74-2.22,4.96-4.96,4.96c-2.74,0-4.96-2.22-4.96-4.96c0-0.58,0.12-1.12,0.3-1.64      c0.82,1.36,2.26,2.34,4.34,2.34c2.42,0,3.96-1.33,4.68-3.04C255.77,426.14,256,426.92,256,427.77z M269.4,424.5      c-0.09,0.21-0.19,0.41-0.3,0.61c-0.28,0.36-0.56,0.72-0.84,1.08c-0.48,0.52-1.06,0.89-1.72,1.1c-0.64,0.33-1.32,0.49-2.06,0.46      c-0.74,0.03-1.42-0.13-2.06-0.46c-0.56-0.18-1.04-0.5-1.48-0.9c-0.13,0.44-0.22,0.9-0.22,1.38c0,2.74,2.22,4.96,4.96,4.96      c2.74,0,4.96-2.22,4.96-4.96C270.66,426.51,270.17,425.37,269.4,424.5z"/></g></g><g><g><path class="st6" d="M267.06,54.95c0.03,0.85-0.15,1.65-0.53,2.39c-0.25,0.77-0.68,1.43-1.28,2c-0.56,0.6-1.23,1.03-2,1.28      c-0.74,0.39-1.54,0.57-2.39,0.53h-1.45c-1.12,0-2.16-0.29-3.13-0.85l-1.25-0.97c-0.77-0.77-1.3-1.69-1.59-2.74      c-0.07-0.55-0.15-1.1-0.22-1.65c-0.03-0.85,0.15-1.65,0.53-2.39c0.25-0.77,0.68-1.43,1.28-2c0.56-0.6,1.23-1.03,2-1.28      c0.74-0.39,1.54-0.57,2.39-0.53h1.45c1.12,0,2.16,0.29,3.13,0.85l1.25,0.97c0.77,0.77,1.3,1.69,1.59,2.74L267.06,54.95z       M244.91,64.61c-4.35,0-4.36,6.76,0,6.76C249.26,71.38,249.27,64.61,244.91,64.61z M92.71,122.35c-6.53,0-6.54,10.15,0,10.15      C99.24,132.5,99.25,122.35,92.71,122.35z M81.11,138.78c-2.18,0-2.18,3.38,0,3.38C83.29,142.16,83.29,138.78,81.11,138.78z       M426.4,122.79c-0.41-0.44-0.89-0.75-1.45-0.93c-0.54-0.28-1.12-0.41-1.74-0.39c-1.17,0.05-2.38,0.44-3.19,1.32      c-0.81,0.88-1.32,1.97-1.32,3.19v1.45c0,1.16,0.5,2.37,1.32,3.19c0.41,0.44,0.89,0.75,1.45,0.93c0.54,0.28,1.12,0.41,1.74,0.39      c1.17-0.05,2.38-0.44,3.19-1.32c0.81-0.88,1.32-1.97,1.32-3.19v-1.45C427.72,124.82,427.21,123.61,426.4,122.79z M410.16,133.87      c-2.9,0-2.91,4.51,0,4.51C413.06,138.38,413.07,133.87,410.16,133.87z M186.93,209.33c-6.53,0-6.54,10.15,0,10.15      C193.46,219.47,193.47,209.33,186.93,209.33z M179.68,220.28c-3.63,0-3.63,5.64,0,5.64      C183.31,225.92,183.31,220.28,179.68,220.28z M164.42,302.14c-0.99-0.91-2.21-1.49-3.59-1.49h-1.45      c-0.7-0.03-1.35,0.12-1.95,0.44c-0.63,0.2-1.17,0.55-1.63,1.05c-0.49,0.46-0.84,1-1.05,1.63c-0.32,0.6-0.46,1.26-0.44,1.95      c0.06,1.31,0.49,2.67,1.49,3.59c0.99,0.91,2.21,1.49,3.59,1.49h1.45c0.7,0.03,1.35-0.12,1.95-0.44c0.63-0.2,1.17-0.55,1.63-1.05      c0.49-0.46,0.84-1,1.05-1.63c0.32-0.6,0.46-1.26,0.44-1.95C165.85,304.41,165.42,303.05,164.42,302.14z M149.24,314.5      c-3.63,0-3.63,5.64,0,5.64C152.87,320.14,152.87,314.5,149.24,314.5z M77.45,200.67c-0.99-0.91-2.21-1.49-3.59-1.49h-1.45      c-0.7-0.03-1.35,0.12-1.95,0.44c-0.63,0.2-1.17,0.55-1.63,1.05c-0.49,0.46-0.84,1-1.05,1.63c-0.32,0.6-0.46,1.26-0.44,1.95      c0.06,1.31,0.49,2.67,1.49,3.59c0.99,0.91,2.21,1.49,3.59,1.49h1.45c0.7,0.03,1.35-0.12,1.95-0.44c0.63-0.2,1.17-0.55,1.63-1.05      c0.49-0.46,0.84-1,1.05-1.63c0.32-0.6,0.46-1.26,0.44-1.95C78.88,202.94,78.45,201.58,77.45,200.67z M66.61,213.92      c-4.35,0-4.36,6.76,0,6.76C70.97,220.68,70.97,213.92,66.61,213.92z M214.47,376.03c-6.53,0-6.54,10.15,0,10.15      C221,386.17,221.01,376.03,214.47,376.03z M205.77,388.67c-1.45,0-1.45,2.25,0,2.25C207.22,390.93,207.23,388.67,205.77,388.67z      "/></g><g class="st8"><path class="st6" d="M446.4,451.08c-7.99,0-7.98-12.4,0-12.4C454.39,438.68,454.38,451.08,446.4,451.08z M426.11,454.22      c-2.9,0-2.91,4.51,0,4.51C429.01,458.73,429.01,454.22,426.11,454.22z M317.39,465.58c-5.08,0-5.09,7.89,0,7.89      C322.47,473.47,322.48,465.58,317.39,465.58z M304.34,469.85c-1.45,0-1.45,2.25,0,2.25C305.79,472.1,305.8,469.85,304.34,469.85      z M365.22,469.04c-4.35,0-4.36,6.76,0,6.76C369.58,475.81,369.58,469.04,365.22,469.04z M121.7,446.49      c-7.25,0-7.27,11.27,0,11.27C128.95,457.77,128.96,446.49,121.7,446.49z M102.85,457.69c-2.18,0-2.18,3.38,0,3.38      C105.03,461.07,105.03,457.69,102.85,457.69z"/></g></g></g></g></svg>